<svg width="282" height="84" viewBox="0 0 282 84" fill="none" xmlns="http://www.w3.org/2000/svg">
<g clip-path="url(#clip0_38_1226)">
<g clip-path="url(#clip1_38_1226)">
<path d="M43.606 46.4899C47.5691 47.9369 51.3845 49.1534 54.9467 50.1139C51.6877 48.143 48.0485 46.1634 44.1219 44.244C54.1117 43.9658 63.5045 43.1844 71.8941 41.9996C63.6236 40.8323 54.3791 40.0565 44.5482 39.7672C48.3739 37.9936 51.9297 36.1582 55.1276 34.3228C51.4273 35.2302 47.4516 36.4007 43.3155 37.8169C50.1828 30.5656 56.2714 23.3817 61.3647 16.621C54.6895 21.6343 47.6016 27.6144 40.4439 34.3521C41.8932 30.396 43.1107 26.5858 44.0727 23.0299C42.0988 26.283 40.1161 29.9166 38.1953 33.837C37.9151 23.8628 37.1333 14.4845 35.9467 6.1095C34.7767 14.3656 34.0005 23.5965 33.7108 33.4115C31.9336 29.5917 30.0962 26.0413 28.2579 22.8484C29.1667 26.543 30.339 30.5125 31.7566 34.6414C24.4949 27.7856 17.2999 21.7064 10.5287 16.6202C15.5497 23.2866 21.5391 30.3636 28.2873 37.5102C24.325 36.0623 20.5089 34.8459 16.9467 33.8862C20.2057 35.8571 23.8441 37.8367 27.7714 39.7553C17.7816 40.0335 8.3888 40.8149 0 41.9996C8.26974 43.1678 17.5142 43.9428 27.3451 44.2321C23.5194 46.0064 19.9636 47.8418 16.7649 49.6764C20.4668 48.7691 24.4425 47.5985 28.5786 46.1824C21.7105 53.4336 15.6219 60.6175 10.5287 67.3782C17.2038 62.365 24.2917 56.3848 31.4495 49.6487C30.0001 53.6032 28.7818 57.4143 27.8206 60.9702C29.7946 57.7162 31.7773 54.0835 33.6981 50.1622C33.9782 60.1365 34.76 69.5148 35.9467 77.8906C37.1166 69.6344 37.8928 60.4028 38.1826 50.5878C39.9597 54.4076 41.7971 57.9579 43.6354 61.1509C42.7266 57.4563 41.5543 53.4867 40.1359 49.3571C47.3984 56.2137 54.5935 62.2928 61.3647 67.3782C56.3436 60.7134 50.3542 53.6365 43.606 46.4899Z" fill="#9ECB05"/>
</g>
</g>
<g clip-path="url(#clip2_38_1226)">
<g clip-path="url(#clip3_38_1226)">
<path d="M279.595 54.855H89.8305C88.761 54.855 87.8941 55.6863 87.8941 56.7119C87.8941 57.7374 88.761 58.5688 89.8305 58.5688H279.595C280.665 58.5688 281.532 57.7374 281.532 56.7119C281.532 55.6863 280.665 54.855 279.595 54.855Z" fill="#9ECB05"/>
<g clip-path="url(#clip4_38_1226)">
<g clip-path="url(#clip5_38_1226)">
<path d="M101.9 13.0234H105.822V11.7484H93.2532V13.0234H97.6774V33.2225C97.6774 37.245 97.1679 39.6477 96.149 40.4308C95.7602 40.6918 95.3212 40.8223 94.8318 40.8223C93.947 40.8223 93.3571 40.3136 93.0621 39.2963C92.7002 38.1585 92.4555 37.4892 92.3281 37.2885C91.9326 36.7664 91.3428 36.5054 90.5585 36.5054C89.5396 36.5054 88.8692 36.9806 88.5475 37.931C88.4469 38.192 88.3967 38.4363 88.3967 38.6638C88.3967 39.969 89.248 40.9327 90.9506 41.5552C91.869 41.8831 92.8845 42.0471 93.9973 42.0471C96.8059 42.0471 98.9309 40.9361 100.372 38.714C101.391 37.1144 101.9 35.12 101.9 32.7306V13.0234ZM113.675 30.7227C113.675 25.6562 115.066 22.5675 117.848 21.4564C118.571 21.1954 119.326 21.0649 120.11 21.0649C123.743 21.0649 125.855 23.3539 126.444 27.9318C126.545 28.7149 126.595 29.5783 126.595 30.522C126.595 36.0168 125.087 39.2361 122.071 40.1798C121.481 40.3471 120.877 40.4308 120.261 40.4308C116.949 40.4308 114.871 38.4698 114.027 34.5477C113.792 33.4032 113.675 32.1282 113.675 30.7227ZM120.261 19.8401C117.117 19.8401 114.496 20.9177 112.398 23.0728C110.467 25.0673 109.502 27.5503 109.502 30.522C109.502 34.6448 111.01 37.7335 114.027 39.7882C115.857 41.0331 117.884 41.6556 120.11 41.6556C123.254 41.6556 125.855 40.5445 127.912 38.3225C129.816 36.2946 130.768 33.7613 130.768 30.7227C130.768 26.6066 129.243 23.5513 126.193 21.5568C124.397 20.4124 122.419 19.8401 120.261 19.8401ZM147.751 41.6556C150.627 41.6556 153.046 40.578 155.01 38.4229C156.847 36.328 157.766 33.681 157.766 30.4818C157.766 26.881 156.783 24.07 154.819 22.0488C153.345 20.5763 151.528 19.8401 149.37 19.8401C145.804 19.8401 143.266 21.4397 141.758 24.6389C141.597 24.9334 141.466 25.2279 141.366 25.5224V9.29883H134.006V10.5236H137.686V36.9973C137.686 38.5032 137.26 39.4034 136.409 39.6979C135.92 39.8585 135.118 39.9388 134.006 39.9388V41.1636H140.19L140.632 37.931C142.04 40.1865 144.168 41.4113 147.017 41.6054C147.278 41.6388 147.523 41.6556 147.751 41.6556ZM147.851 21.7978C150.533 21.7978 152.282 23.4342 153.1 26.707C153.428 27.9117 153.593 29.2838 153.593 30.8231C153.593 35.4278 152.349 38.4162 149.862 39.7882C149.078 40.2166 148.21 40.4308 147.258 40.4308C144.805 40.4308 143.069 39.1223 142.05 36.5054C141.56 35.1334 141.316 33.5471 141.316 31.7468C141.316 27.798 142.298 24.9401 144.262 23.1732C145.307 22.2562 146.504 21.7978 147.851 21.7978ZM183.587 33.4635C183.587 30.5588 182.015 28.223 178.871 26.456C178.247 26.1281 176.334 25.2614 173.129 23.8558C170.213 22.6177 168.38 21.346 167.629 20.0409C167.234 19.3181 167.036 18.5484 167.036 17.7319C167.036 15.5433 168.102 14.024 170.234 13.174C171.152 12.8126 172.167 12.6319 173.28 12.6319C176.029 12.6319 178.123 13.5655 179.565 15.4329C180.51 16.7045 180.966 18.2539 180.932 20.0811H182.41V11.5075C181.626 11.5075 181.167 11.7518 181.033 12.2404C180.966 12.4679 180.932 12.7791 180.932 13.174C178.613 11.8957 175.995 11.2565 173.079 11.2565C169.547 11.2565 166.798 12.237 164.834 14.198C163.52 15.5768 162.863 17.1797 162.863 19.0069C162.863 21.7509 164.402 23.9897 167.479 25.7232C168.035 26.0176 169.902 26.8509 173.079 28.2229C176.022 29.5281 177.889 30.8499 178.68 32.1885C179.102 32.9448 179.313 33.7647 179.313 34.6481C179.313 36.9304 178.2 38.5802 175.975 39.5975C174.929 40.0526 173.766 40.2802 172.486 40.2802C167.479 40.2133 164.697 37.1579 164.14 31.1143H162.672V41.264C163.457 41.264 163.916 41.0331 164.05 40.5713C164.11 40.3103 164.14 39.8384 164.14 39.1558C166.661 40.8223 169.526 41.6556 172.737 41.6556C176.498 41.6556 179.41 40.6416 181.475 38.6137C182.883 37.1747 183.587 35.458 183.587 33.4635ZM198.116 49.2553H194.677V39.1056C196.48 40.6717 198.558 41.5217 200.911 41.6556C203.827 41.6556 206.267 40.5613 208.231 38.3727C210.128 36.2444 211.077 33.5471 211.077 30.281C211.077 26.5531 210.044 23.7253 207.98 21.7978C206.545 20.4927 204.796 19.8401 202.731 19.8401C199.554 19.8401 197.181 21.0984 195.612 23.6149C195.217 24.2708 194.888 24.9568 194.627 25.673L194.386 20.332H187.317V21.5568H190.997V46.3138C190.997 47.813 190.571 48.7099 189.72 49.0043C189.231 49.1717 188.43 49.2553 187.317 49.2553V50.4801H199.343C199.343 49.7573 199.098 49.3658 198.609 49.3055C198.475 49.2721 198.31 49.2553 198.116 49.2553ZM201.163 21.7978C204.011 21.7978 205.811 23.5814 206.562 27.1487C206.79 28.2263 206.904 29.4344 206.904 30.7729C206.904 35.5784 205.61 38.617 203.023 39.8886C202.272 40.2501 201.454 40.4308 200.569 40.4308C198.049 40.4308 196.316 39.1056 195.371 36.4552C194.875 35.1166 194.627 33.5338 194.627 31.7066C194.627 27.4566 195.723 24.5151 197.915 22.882C198.9 22.1592 199.983 21.7978 201.163 21.7978ZM232.232 41.6556C234.753 41.6556 236.144 40.1363 236.405 37.0977C236.439 36.8969 236.455 36.7162 236.455 36.5556L235.178 36.5054C234.95 38.8948 234.314 40.1028 233.268 40.1296C232.417 40.0694 231.974 39.2227 231.941 37.5896V27.2391C231.941 22.5675 229.601 20.1011 224.922 19.8401C224.627 19.8401 224.332 19.8401 224.037 19.8401C220.371 19.8401 217.914 20.6901 216.667 22.3901C216.278 22.9456 216.084 23.5011 216.084 24.0566C216.084 25.0673 216.557 25.6562 217.502 25.8236C217.669 25.857 217.834 25.8738 217.994 25.8738C218.752 25.8738 219.308 25.3986 219.664 24.4482C220.126 23.2368 220.438 22.5173 220.599 22.2897C221.222 21.4732 222.187 21.0649 223.494 21.0649C226.571 21.259 228.16 22.9423 228.261 26.1147V29.2068C220.565 29.2068 216.161 30.8064 215.048 34.0056C214.854 34.628 214.757 35.2973 214.757 36.0135C214.757 38.4965 215.853 40.1965 218.045 41.1134C218.93 41.4749 219.865 41.6556 220.85 41.6556C223.236 41.6556 225.247 40.839 226.883 39.206C227.473 38.5835 227.915 37.9276 228.21 37.2383C228.606 40.1497 229.946 41.6221 232.232 41.6556ZM222.469 39.6979C220.471 39.6979 219.241 38.7007 218.779 36.7062C218.685 36.2444 218.638 35.7357 218.638 35.1802C218.638 32.9916 219.898 31.6029 222.419 31.0139C223.759 30.7194 225.707 30.5554 228.261 30.522V34.4473C227.771 36.7028 226.575 38.289 224.671 39.206C223.92 39.5339 223.186 39.6979 222.469 39.6979ZM249.175 39.9388H245.635V30.1806C245.635 27.209 246.554 24.823 248.39 23.0226C249.108 22.3399 249.711 21.9818 250.2 21.9484C250.757 21.9484 251.266 22.3566 251.729 23.1732C252.252 24.0901 252.741 24.6121 253.197 24.7393C253.391 24.8062 253.589 24.8397 253.79 24.8397C254.769 24.8397 255.389 24.3645 255.65 23.4141C255.717 23.22 255.751 23.0259 255.751 22.8318C255.751 21.3594 254.997 20.4592 253.488 20.1313C253.167 20.071 252.858 20.0409 252.563 20.0409C250.599 20.0409 248.846 20.8742 247.305 22.5407C246.587 23.3238 246.014 24.2039 245.585 25.181L245.394 20.332H238.275V21.5568H241.955V36.9973C241.955 38.5032 241.53 39.4034 240.678 39.6979C240.189 39.8585 239.388 39.9388 238.275 39.9388V41.1636H250.401C250.401 40.4475 250.153 40.056 249.657 39.989C249.53 39.9556 249.369 39.9388 249.175 39.9388ZM267.093 39.9388H264.88V32.6804L267.575 30.1806L274.503 41.1636H281.029C281.029 40.4475 280.784 40.056 280.295 39.989C280.167 39.9556 280.003 39.9388 279.802 39.9388H278.032L270.129 27.7812L274.744 23.4643C275.891 22.3868 276.759 21.7844 277.349 21.6572C277.61 21.5903 277.905 21.5568 278.233 21.5568C278.951 21.5568 279.343 21.3126 279.41 20.824C279.443 20.6566 279.46 20.4927 279.46 20.332H271.115V21.5568H274.795L264.88 30.7227V9.29883H257.51V10.5236H261.2V36.9973C261.2 38.5032 260.775 39.4034 259.923 39.6979C259.427 39.8585 258.623 39.9388 257.51 39.9388V41.1636H268.319C268.319 40.4475 268.071 40.056 267.575 39.989C267.448 39.9556 267.287 39.9388 267.093 39.9388Z" fill="white"/>
</g>
</g>
<g clip-path="url(#clip6_38_1226)">
<g clip-path="url(#clip7_38_1226)">
<path d="M96.0447 72.0412H96.1566L98.9298 64.007H99.6331V63.643H97.3623V64.007H98.4819L96.2829 70.6138L94.0237 64.007H95.1605V63.643H92.7491L93.7021 66.3316L92.2295 70.5851L89.8611 64.007H90.9979V63.643H87.9147V64.007H88.7415L91.3194 71.2014C91.507 71.7326 91.6754 72.0269 91.8247 72.0842C91.8802 72.1014 91.9357 72.11 91.9912 72.11H92.106L93.9261 66.9736L95.4275 71.2014C95.5959 71.6772 95.7308 71.9428 95.8322 71.9982C95.8897 72.0269 95.9605 72.0412 96.0447 72.0412ZM102.883 71.6915H102.182V68.6676C102.182 67.8192 102.477 67.2039 103.067 66.8217C103.31 66.6631 103.561 66.5838 103.822 66.5838C104.392 66.5838 104.789 66.8494 105.013 67.3806C105.116 67.6329 105.168 67.9128 105.168 68.2204V70.8517C105.168 71.2816 105.066 71.5387 104.861 71.6227C104.729 71.6686 104.504 71.6915 104.186 71.6915V72.0412H107.272C107.272 71.8368 107.201 71.725 107.06 71.7059C107.023 71.6963 106.976 71.6915 106.919 71.6915H106.219V68.2204C106.219 67.2039 105.883 66.5131 105.211 66.1481C104.949 66.0182 104.668 65.9532 104.37 65.9532C103.677 65.9532 103.097 66.2054 102.63 66.7099C102.435 66.9239 102.286 67.1666 102.182 67.4379V62.9436H100.081V63.2933H101.132V70.8517C101.132 71.2816 101.01 71.5387 100.767 71.6227C100.627 71.6686 100.399 71.6915 100.081 71.6915V72.0412H103.233C103.233 71.8368 103.163 71.725 103.023 71.7059C102.985 71.6963 102.938 71.6915 102.883 71.6915ZM111.125 66.3029C111.779 66.3029 112.214 66.5781 112.428 67.1284C112.503 67.3061 112.54 67.4972 112.54 67.7016C112.54 68.1679 112.316 68.4526 111.868 68.5558C111.635 68.6036 111.303 68.6227 110.872 68.6131L109.388 68.5701C109.434 67.4981 109.784 66.7988 110.439 66.472C110.653 66.3593 110.882 66.3029 111.125 66.3029ZM113.565 70.6969L113.215 70.5708C112.887 71.2797 112.359 71.681 111.63 71.7746C111.536 71.7842 111.447 71.789 111.363 71.789C110.381 71.789 109.765 71.2062 109.514 70.0405C109.438 69.7138 109.396 69.3545 109.388 68.9628L111.067 68.9915C112.208 69.0087 112.942 68.9007 113.269 68.6676C113.522 68.4822 113.648 68.2166 113.648 67.8708C113.648 67.2364 113.326 66.7328 112.681 66.3602C112.223 66.0889 111.695 65.9532 111.096 65.9532C109.929 65.9532 109.092 66.4386 108.587 67.4093C108.327 67.9118 108.197 68.4803 108.197 69.1147C108.197 70.2727 108.612 71.1316 109.442 71.6915C109.938 72.0183 110.504 72.1817 111.139 72.1817C112.148 72.1817 112.89 71.8176 113.367 71.0896C113.441 70.9597 113.507 70.8288 113.565 70.6969ZM117.699 71.6915H116.688V68.9055C116.688 68.0571 116.95 67.3758 117.475 66.8618C117.68 66.6669 117.852 66.5647 117.991 66.5551C118.15 66.5551 118.296 66.6717 118.428 66.9048C118.577 67.1666 118.717 67.3157 118.847 67.352C118.904 67.3711 118.961 67.3806 119.016 67.3806C119.296 67.3806 119.473 67.245 119.547 66.9736C119.567 66.9182 119.576 66.8628 119.576 66.8074C119.576 66.387 119.362 66.13 118.933 66.0363C118.839 66.0191 118.75 66.0105 118.666 66.0105C118.105 66.0105 117.605 66.2484 117.165 66.7242C116.96 66.9478 116.796 67.1991 116.674 67.4781L116.619 66.0937H114.587V66.4433H115.637V70.8517C115.637 71.2816 115.516 71.5387 115.273 71.6227C115.133 71.6686 114.904 71.6915 114.587 71.6915V72.0412H118.049C118.049 71.8368 117.979 71.725 117.839 71.7059C117.801 71.6963 117.754 71.6915 117.699 71.6915ZM123.136 66.3029C123.79 66.3029 124.225 66.5781 124.439 67.1284C124.514 67.3061 124.551 67.4972 124.551 67.7016C124.551 68.1679 124.327 68.4526 123.879 68.5558C123.646 68.6036 123.314 68.6227 122.883 68.6131L121.399 68.5701C121.445 67.4981 121.795 66.7988 122.45 66.472C122.664 66.3593 122.893 66.3029 123.136 66.3029ZM125.576 70.6969L125.226 70.5708C124.899 71.2797 124.37 71.681 123.641 71.7746C123.547 71.7842 123.458 71.789 123.374 71.789C122.392 71.789 121.776 71.2062 121.525 70.0405C121.451 69.7138 121.409 69.3545 121.399 68.9628L123.081 68.9915C124.22 69.0087 124.953 68.9007 125.28 68.6676C125.533 68.4822 125.659 68.2166 125.659 67.8708C125.659 67.2364 125.337 66.7328 124.692 66.3602C124.234 66.0889 123.706 65.9532 123.107 65.9532C121.94 65.9532 121.103 66.4386 120.598 67.4093C120.338 67.9118 120.208 68.4803 120.208 69.1147C120.208 70.2727 120.623 71.1316 121.454 71.6915C121.949 72.0183 122.515 72.1817 123.15 72.1817C124.159 72.1817 124.901 71.8176 125.378 71.0896C125.453 70.9597 125.519 70.8288 125.576 70.6969ZM130.941 72.0412H134.797C134.797 71.8368 134.722 71.7202 134.573 71.6915C134.527 71.682 134.48 71.6772 134.432 71.6772H133.479V64.007H134.292C135.049 64.007 135.555 64.4646 135.807 65.38C135.807 65.4163 135.812 65.444 135.822 65.4631L136.046 66.4004H136.436L136.367 63.643H129.443L129.371 66.4004H129.764L129.988 65.4631C130.289 64.5497 130.799 64.0643 131.518 64.007H132.273V71.6772H130.941V72.0412ZM142.407 72.1817C143.127 72.1817 143.524 71.7479 143.599 70.8804C143.608 70.823 143.613 70.7714 143.613 70.7256L143.248 70.7113C143.183 71.3934 143.001 71.7383 142.703 71.746C142.46 71.7288 142.333 71.4871 142.324 71.0208V68.0657C142.324 66.7319 141.656 66.0277 140.32 65.9532C140.236 65.9532 140.152 65.9532 140.068 65.9532C139.021 65.9532 138.319 66.1959 137.963 66.6812C137.852 66.8398 137.797 66.9985 137.797 67.1571C137.797 67.4456 137.932 67.6137 138.202 67.6615C138.249 67.6711 138.296 67.6759 138.342 67.6759C138.558 67.6759 138.717 67.5402 138.819 67.2688C138.951 66.923 139.04 66.7176 139.086 66.6526C139.264 66.4195 139.539 66.3029 139.912 66.3029C140.791 66.3583 141.245 66.8389 141.273 67.7446V68.6275C139.076 68.6275 137.819 69.0842 137.501 69.9975C137.446 70.1753 137.418 70.3663 137.418 70.5708C137.418 71.2797 137.731 71.7651 138.357 72.0269C138.609 72.1301 138.875 72.1817 139.155 72.1817C139.838 72.1817 140.413 71.9485 140.88 71.4823C141.048 71.3046 141.175 71.1173 141.259 70.9205C141.37 71.7517 141.753 72.1721 142.407 72.1817ZM139.62 71.6227C139.049 71.6227 138.698 71.338 138.566 70.7686C138.539 70.6367 138.526 70.4915 138.526 70.3329C138.526 69.7081 138.886 69.3115 139.605 69.1434C139.988 69.0593 140.544 69.0125 141.273 69.0029V70.1237C141.132 70.7676 140.79 71.2205 140.248 71.4823C140.034 71.5759 139.824 71.6227 139.62 71.6227ZM147.006 71.6915H146.248V62.9436H144.144V63.2933H145.198V70.8517C145.198 71.2816 145.076 71.5387 144.833 71.6227C144.691 71.6686 144.462 71.6915 144.144 71.6915V72.0412H147.356C147.356 71.8368 147.286 71.725 147.144 71.7059C147.108 71.6963 147.062 71.6915 147.006 71.6915ZM151.223 66.3029C151.878 66.3029 152.312 66.5781 152.527 67.1284C152.601 67.3061 152.638 67.4972 152.638 67.7016C152.638 68.1679 152.415 68.4526 151.967 68.5558C151.733 68.6036 151.401 68.6227 150.971 68.6131L149.486 68.5701C149.532 67.4981 149.883 66.7988 150.537 66.472C150.751 66.3593 150.98 66.3029 151.223 66.3029ZM153.663 70.6969L153.313 70.5708C152.986 71.2797 152.458 71.681 151.728 71.7746C151.635 71.7842 151.546 71.789 151.461 71.789C150.48 71.789 149.862 71.2062 149.61 70.0405C149.535 69.7138 149.494 69.3545 149.486 68.9628L151.166 68.9915C152.306 69.0087 153.04 68.9007 153.368 68.6676C153.62 68.4822 153.747 68.2166 153.747 67.8708C153.747 67.2364 153.424 66.7328 152.779 66.3602C152.322 66.0889 151.794 65.9532 151.194 65.9532C150.027 65.9532 149.191 66.4386 148.685 67.4093C148.423 67.9118 148.292 68.4803 148.292 69.1147C148.292 70.2727 148.708 71.1316 149.541 71.6915C150.037 72.0183 150.602 72.1817 151.238 72.1817C152.246 72.1817 152.989 71.8176 153.465 71.0896C153.54 70.9597 153.606 70.8288 153.663 70.6969ZM157.39 71.6915H156.758V68.6676C156.787 67.8001 157.096 67.1752 157.685 66.793C157.938 66.6344 158.194 66.5551 158.455 66.5551C159.025 66.5551 159.413 66.8207 159.62 67.352C159.704 67.5679 159.746 67.8106 159.746 68.08V70.8517C159.746 71.2816 159.625 71.5387 159.382 71.6227C159.24 71.6686 159.011 71.6915 158.693 71.6915V72.0412H161.848C161.848 71.8368 161.778 71.725 161.638 71.7059C161.6 71.6963 161.553 71.6915 161.498 71.6915H160.797V68.2204C160.797 67.2879 160.475 66.6211 159.83 66.2198C159.531 66.0421 159.209 65.9532 158.862 65.9532C158.171 65.9532 157.601 66.2284 157.151 66.7787C156.983 66.9927 156.848 67.2306 156.747 67.4924L156.689 66.0937H154.657V66.4433H155.707V70.8517C155.707 71.2816 155.586 71.5387 155.343 71.6227C155.203 71.6686 154.974 71.6915 154.657 71.6915V72.0412H157.74C157.74 71.8368 157.67 71.725 157.53 71.7059C157.492 71.6963 157.445 71.6915 157.39 71.6915ZM162.477 66.0937V66.4433H163.458V70.3902C163.523 71.5559 164.061 72.1578 165.072 72.196C165.931 72.196 166.468 71.6686 166.682 70.6138C166.682 70.6042 166.682 70.5947 166.682 70.5851L166.303 70.5163C166.07 71.2902 165.729 71.7097 165.281 71.7746C164.776 71.7555 164.519 71.3963 164.509 70.6969V66.4433H166.682V66.0937H164.509V64.4685L163.458 64.7637V66.0937H162.477ZM180.433 64.007V63.643H178.191L175.162 70.4877L171.91 63.643H169.906V64.007H171.026V71.6772H169.906V72.0412H172.708C172.708 71.8368 172.633 71.7202 172.484 71.6915C172.438 71.682 172.391 71.6772 172.343 71.6772H171.588V65.658L174.657 72.11H174.953L178.191 64.9041V71.6772H177.068V72.0412H180.433C180.433 71.8368 180.358 71.7202 180.209 71.6915C180.161 71.682 180.114 71.6772 180.068 71.6772H179.311V64.007H180.433ZM184.343 66.3029C184.997 66.3029 185.432 66.5781 185.646 67.1284C185.721 67.3061 185.758 67.4972 185.758 67.7016C185.758 68.1679 185.534 68.4526 185.086 68.5558C184.853 68.6036 184.521 68.6227 184.09 68.6131L182.603 68.5701C182.651 67.4981 183.002 66.7988 183.657 66.472C183.871 66.3593 184.1 66.3029 184.343 66.3029ZM186.78 70.6969L186.43 70.5708C186.103 71.2797 185.575 71.681 184.848 71.7746C184.754 71.7842 184.665 71.789 184.581 71.789C183.599 71.789 182.982 71.2062 182.73 70.0405C182.655 69.7138 182.613 69.3545 182.603 68.9628L184.286 68.9915C185.426 69.0087 186.16 68.9007 186.487 68.6676C186.74 68.4822 186.866 68.2166 186.866 67.8708C186.866 67.2364 186.544 66.7328 185.899 66.3602C185.441 66.0889 184.913 65.9532 184.314 65.9532C183.147 65.9532 182.31 66.4386 181.805 67.4093C181.543 67.9118 181.412 68.4803 181.412 69.1147C181.412 70.2727 181.828 71.1316 182.661 71.6915C183.156 72.0183 183.722 72.1817 184.357 72.1817C185.366 72.1817 186.108 71.8176 186.585 71.0896C186.66 70.9597 186.725 70.8288 186.78 70.6969ZM190.845 66.3029C191.5 66.3029 191.934 66.5781 192.148 67.1284C192.223 67.3061 192.26 67.4972 192.26 67.7016C192.26 68.1679 192.037 68.4526 191.589 68.5558C191.355 68.6036 191.023 68.6227 190.593 68.6131L189.108 68.5701C189.154 67.4981 189.505 66.7988 190.159 66.472C190.373 66.3593 190.602 66.3029 190.845 66.3029ZM193.285 70.6969L192.935 70.5708C192.608 71.2797 192.08 71.681 191.35 71.7746C191.257 71.7842 191.168 71.789 191.083 71.789C190.104 71.789 189.487 71.2062 189.235 70.0405C189.16 69.7138 189.118 69.3545 189.108 68.9628L190.791 68.9915C191.929 69.0087 192.662 68.9007 192.99 68.6676C193.242 68.4822 193.369 68.2166 193.369 67.8708C193.369 67.2364 193.046 66.7328 192.401 66.3602C191.944 66.0889 191.415 65.9532 190.816 65.9532C189.649 65.9532 188.813 66.4386 188.307 67.4093C188.047 67.9118 187.917 68.4803 187.917 69.1147C187.917 70.2727 188.332 71.1316 189.163 71.6915C189.659 72.0183 190.224 72.1817 190.86 72.1817C191.868 72.1817 192.611 71.8176 193.087 71.0896C193.164 70.9597 193.23 70.8288 193.285 70.6969ZM194.138 66.0937V66.4433H195.12V70.3902C195.185 71.5559 195.723 72.1578 196.733 72.196C197.592 72.196 198.129 71.6686 198.344 70.6138C198.344 70.6042 198.344 70.5947 198.344 70.5851L197.965 70.5163C197.731 71.2902 197.39 71.7097 196.943 71.7746C196.437 71.7555 196.18 71.3963 196.17 70.6969V66.4433H198.344V66.0937H196.17V64.4685L195.12 64.7637V66.0937H194.138ZM201.077 71.8033C201.721 71.8033 202.156 71.6074 202.38 71.2157C202.464 71.0762 202.506 70.9224 202.506 70.7542C202.506 70.3625 202.221 70.0262 201.651 69.7453C201.53 69.6803 201.329 69.5877 201.048 69.4673C200.282 69.1501 199.773 68.851 199.521 68.5701C199.251 68.2625 199.116 67.9032 199.116 67.4924C199.116 66.8484 199.471 66.3956 200.181 66.1338C200.508 66.0134 200.863 65.9532 201.246 65.9532C201.862 65.9532 202.394 66.0841 202.842 66.3459C202.842 66.0745 202.908 65.9207 203.04 65.8844C203.096 65.8749 203.156 65.8701 203.221 65.8701V67.6185H202.856C202.839 66.7605 202.363 66.3268 201.427 66.3172C200.726 66.3172 200.292 66.5226 200.123 66.9335C200.077 67.0443 200.055 67.1609 200.055 67.2832C200.055 67.6844 200.344 68.0246 200.921 68.3036C201.054 68.3685 201.259 68.4574 201.539 68.5701C202.297 68.8778 202.802 69.1721 203.054 69.453C203.324 69.751 203.459 70.1055 203.459 70.5163C203.459 71.2711 203.057 71.7746 202.254 72.0269C201.945 72.1301 201.61 72.1817 201.246 72.1817C200.572 72.1721 199.988 72.004 199.492 71.6772C199.492 71.9199 199.432 72.0603 199.311 72.0985C199.255 72.1062 199.19 72.11 199.116 72.11V69.9832H199.506C199.525 71.1871 200.049 71.7938 201.077 71.8033ZM211.73 63.5025C210.608 63.5025 209.646 63.8713 208.842 64.6089C207.963 65.421 207.524 66.4806 207.524 67.7876C207.524 69.2991 208.043 70.4648 209.08 71.2845C209.836 71.8826 210.705 72.1817 211.687 72.1817C212.789 72.1817 213.737 71.8081 214.532 71.0609C215.42 70.2316 215.864 69.1587 215.864 67.8421C215.864 66.3019 215.327 65.1315 214.253 64.3309C213.524 63.7786 212.683 63.5025 211.73 63.5025ZM211.73 71.789C210.375 71.789 209.505 71.0657 209.12 69.6192C208.99 69.1071 208.925 68.5147 208.925 67.8421C208.925 65.6217 209.598 64.3338 210.943 63.9783C211.177 63.9229 211.425 63.8952 211.687 63.8952C213.528 63.9143 214.453 65.2118 214.463 67.7876C214.463 69.8208 213.897 71.0848 212.766 71.5797C212.448 71.7192 212.103 71.789 211.73 71.789ZM220.084 74.3514H219.102V71.4536C219.615 71.9008 220.208 72.1434 220.882 72.1817C221.712 72.1817 222.408 71.8692 222.969 71.2444C223.512 70.6367 223.784 69.8667 223.784 68.9342C223.784 67.8698 223.489 67.0625 222.9 66.5121C222.488 66.1395 221.988 65.9532 221.398 65.9532C220.493 65.9532 219.816 66.3125 219.366 67.0309C219.255 67.2182 219.162 67.4141 219.088 67.6185L219.016 66.0937H216.998V66.4433H218.051V73.5116C218.051 73.9397 217.93 74.1957 217.687 74.2798C217.545 74.3276 217.315 74.3514 216.998 74.3514V74.7011H220.434C220.434 74.4948 220.363 74.383 220.221 74.3658C220.185 74.3562 220.139 74.3514 220.084 74.3514ZM220.951 66.5121C221.764 66.5121 222.278 67.0214 222.492 68.0399C222.559 68.3475 222.593 68.6924 222.593 69.0746C222.593 70.4466 222.223 71.3141 221.485 71.6772C221.268 71.7804 221.035 71.832 220.784 71.832C220.065 71.832 219.569 71.4536 219.297 70.6969C219.157 70.3147 219.088 69.8628 219.088 69.3412C219.088 68.1278 219.4 67.2879 220.026 66.8217C220.306 66.6153 220.614 66.5121 220.951 66.5121ZM227.792 74.3514H226.81V71.4536C227.325 71.9008 227.918 72.1434 228.59 72.1817C229.422 72.1817 230.119 71.8692 230.68 71.2444C231.221 70.6367 231.492 69.8667 231.492 68.9342C231.492 67.8698 231.197 67.0625 230.608 66.5121C230.196 66.1395 229.697 65.9532 229.109 65.9532C228.202 65.9532 227.525 66.3125 227.077 67.0309C226.964 67.2182 226.87 67.4141 226.795 67.6185L226.727 66.0937H224.708V66.4433H225.759V73.5116C225.759 73.9397 225.638 74.1957 225.395 74.2798C225.255 74.3276 225.026 74.3514 224.708 74.3514V74.7011H228.142C228.142 74.4948 228.072 74.383 227.932 74.3658C227.894 74.3562 227.847 74.3514 227.792 74.3514ZM228.661 66.5121C229.473 66.5121 229.987 67.0214 230.203 68.0399C230.268 68.3475 230.301 68.6924 230.301 69.0746C230.301 70.4466 229.931 71.3141 229.193 71.6772C228.978 71.7804 228.745 71.832 228.492 71.832C227.772 71.832 227.277 71.4536 227.005 70.6969C226.865 70.3147 226.795 69.8628 226.795 69.3412C226.795 68.1278 227.108 67.2879 227.734 66.8217C228.016 66.6153 228.325 66.5121 228.661 66.5121ZM233.803 69.0603C233.803 67.6137 234.2 66.7319 234.994 66.4147C235.201 66.3402 235.416 66.3029 235.64 66.3029C236.678 66.3029 237.28 66.9564 237.449 68.2634C237.476 68.487 237.489 68.7335 237.489 69.0029C237.489 70.5718 237.059 71.4909 236.2 71.7603C236.032 71.8081 235.859 71.832 235.683 71.832C234.738 71.832 234.144 71.2721 233.901 70.1523C233.835 69.8256 233.803 69.4616 233.803 69.0603ZM235.683 65.9532C234.786 65.9532 234.037 66.2609 233.438 66.8762C232.887 67.4456 232.612 68.1545 232.612 69.0029C232.612 70.18 233.041 71.0619 233.901 71.6485C234.425 72.004 235.005 72.1817 235.64 72.1817C236.538 72.1817 237.28 71.8645 237.868 71.2301C238.411 70.6511 238.683 69.9278 238.683 69.0603C238.683 67.8851 238.248 67.0128 237.377 66.4433C236.864 66.1166 236.3 65.9532 235.683 65.9532ZM242.803 71.6915H241.792V68.9055C241.792 68.0571 242.054 67.3758 242.579 66.8618C242.784 66.6669 242.956 66.5647 243.096 66.5551C243.254 66.5551 243.4 66.6717 243.532 66.9048C243.681 67.1666 243.821 67.3157 243.951 67.352C244.007 67.3711 244.063 67.3806 244.12 67.3806C244.4 67.3806 244.577 67.245 244.651 66.9736C244.671 66.9182 244.68 66.8628 244.68 66.8074C244.68 66.387 244.465 66.13 244.034 66.0363C243.942 66.0191 243.854 66.0105 243.77 66.0105C243.209 66.0105 242.709 66.2484 242.269 66.7242C242.064 66.9478 241.9 67.1991 241.778 67.4781L241.723 66.0937H239.691V66.4433H240.742V70.8517C240.742 71.2816 240.62 71.5387 240.377 71.6227C240.237 71.6686 240.009 71.6915 239.691 71.6915V72.0412H243.153C243.153 71.8368 243.083 71.725 242.943 71.7059C242.905 71.6963 242.858 71.6915 242.803 71.6915ZM245.03 66.0937V66.4433H246.012V70.3902C246.077 71.5559 246.614 72.1578 247.623 72.196C248.482 72.196 249.02 71.6686 249.236 70.6138C249.236 70.6042 249.236 70.5947 249.236 70.5851L248.857 70.5163C248.624 71.2902 248.282 71.7097 247.832 71.7746C247.329 71.7555 247.072 71.3963 247.063 70.6969V66.4433H249.236V66.0937H247.063V64.4685L246.012 64.7637V66.0937H245.03ZM256.525 71.6915H255.822V66.0937H253.623V66.4433H254.771V69.4673C254.771 70.3062 254.477 70.9214 253.89 71.3132C253.627 71.4909 253.356 71.5797 253.074 71.5797C252.309 71.5797 251.866 71.188 251.745 70.4046C251.726 70.2727 251.716 70.1323 251.716 69.9832V66.0937H249.586V66.4433H250.666V69.774C250.673 71.3695 251.341 72.1721 252.669 72.1817C253.37 72.1817 253.944 71.8969 254.392 71.3275C254.56 71.1135 254.696 70.8756 254.8 70.6138L254.897 72.0412H256.875C256.875 71.8368 256.804 71.725 256.663 71.7059C256.626 71.6963 256.58 71.6915 256.525 71.6915ZM260.406 71.6915H259.775V68.6676C259.803 67.8001 260.111 67.1752 260.699 66.793C260.952 66.6344 261.209 66.5551 261.471 66.5551C262.041 66.5551 262.429 66.8207 262.634 67.352C262.718 67.5679 262.76 67.8106 262.76 68.08V70.8517C262.76 71.2816 262.639 71.5387 262.396 71.6227C262.256 71.6686 262.027 71.6915 261.709 71.6915V72.0412H264.864C264.864 71.8368 264.794 71.725 264.652 71.7059C264.616 71.6963 264.57 71.6915 264.514 71.6915H263.811V68.2204C263.811 67.2879 263.488 66.6211 262.843 66.2198C262.545 66.0421 262.223 65.9532 261.879 65.9532C261.186 65.9532 260.616 66.2284 260.168 66.7787C259.999 66.9927 259.864 67.2306 259.76 67.4924L259.706 66.0937H257.673V66.4433H258.724V70.8517C258.724 71.2816 258.602 71.5387 258.359 71.6227C258.22 71.6686 257.991 71.6915 257.673 71.6915V72.0412H260.756C260.756 71.8368 260.686 71.725 260.547 71.7059C260.509 71.6963 260.462 71.6915 260.406 71.6915ZM268.507 71.6915H267.807V66.0937H265.634V66.4433H266.756V70.8517C266.756 71.2816 266.611 71.5425 266.32 71.6342C266.18 71.6724 265.951 71.6915 265.634 71.6915V72.0412H268.858C268.858 71.8368 268.788 71.725 268.648 71.7059C268.6 71.6963 268.553 71.6915 268.507 71.6915ZM267.973 64.05C267.973 63.7232 267.829 63.4901 267.54 63.3506C267.427 63.3028 267.32 63.279 267.218 63.279C266.891 63.279 266.658 63.429 266.518 63.729C266.47 63.8302 266.446 63.9373 266.446 64.05C266.446 64.3959 266.6 64.6338 266.908 64.7637C267.012 64.8 267.115 64.8182 267.218 64.8182C267.546 64.8182 267.774 64.6691 267.904 64.371C267.95 64.2697 267.973 64.1627 267.973 64.05ZM269.558 66.0937V66.4433H270.54V70.3902C270.605 71.5559 271.142 72.1578 272.15 72.196C273.01 72.196 273.547 71.6686 273.764 70.6138C273.764 70.6042 273.764 70.5947 273.764 70.5851L273.385 70.5163C273.151 71.2902 272.81 71.7097 272.36 71.7746C271.857 71.7555 271.6 71.3963 271.591 70.6969V66.4433H273.764V66.0937H271.591V64.4685L270.54 64.7637V66.0937H269.558ZM275.277 74.2655C275.127 74.2655 275.015 74.1537 274.941 73.9301C274.837 73.6511 274.739 73.4791 274.645 73.4142C274.561 73.3568 274.463 73.3282 274.352 73.3282C274.052 73.3282 273.879 73.4591 273.833 73.7209C273.823 73.7572 273.818 73.7896 273.818 73.8183C273.818 74.1737 274.024 74.4307 274.435 74.5893C274.621 74.6639 274.817 74.7011 275.024 74.7011C275.763 74.7011 276.403 74.2483 276.944 73.3425C277.168 72.9794 277.383 72.5457 277.588 72.0412L279.663 66.9335C279.757 66.6717 279.86 66.5226 279.973 66.4863C280.038 66.4672 280.113 66.4577 280.197 66.4577C280.383 66.4577 280.49 66.4061 280.519 66.3029C280.538 66.2475 280.547 66.1777 280.547 66.0937H278.417V66.4577H279.439L277.645 70.9348L275.724 66.4577H276.663V66.0937H273.93V66.4577H274.616L277.14 72.0412C276.617 73.2737 276.126 73.9874 275.667 74.1823C275.537 74.2377 275.407 74.2655 275.277 74.2655Z" fill="white"/>
</g>
</g>
</g>
</g>
<defs>
<clipPath id="clip0_38_1226">
<rect width="71.8941" height="71.7811" fill="white" transform="translate(0 6.1095)"/>
</clipPath>
<clipPath id="clip1_38_1226">
<rect width="71.8941" height="71.7811" fill="white" transform="translate(0 6.1095)"/>
</clipPath>
<clipPath id="clip2_38_1226">
<rect width="193.638" height="65.4023" fill="white" transform="translate(87.8941 9.29883)"/>
</clipPath>
<clipPath id="clip3_38_1226">
<rect width="193.638" height="65.4023" fill="white" transform="translate(87.8941 9.29883)"/>
</clipPath>
<clipPath id="clip4_38_1226">
<rect width="192.674" height="41.1813" fill="white" transform="translate(88.3758 9.29883)"/>
</clipPath>
<clipPath id="clip5_38_1226">
<rect width="192.674" height="41.1813" fill="white" transform="translate(88.3758 9.29883)"/>
</clipPath>
<clipPath id="clip6_38_1226">
<rect width="192.674" height="11.7575" fill="white" transform="translate(87.8941 62.9436)"/>
</clipPath>
<clipPath id="clip7_38_1226">
<rect width="192.674" height="11.7575" fill="white" transform="translate(87.8941 62.9436)"/>
</clipPath>
</defs>
</svg>
