<svg width="324" height="276" viewBox="0 0 324 276" fill="none" xmlns="http://www.w3.org/2000/svg">
<g clip-path="url(#clip0_48_358)">
<g clip-path="url(#clip1_48_358)">
<g clip-path="url(#clip2_48_358)">
<g clip-path="url(#clip3_48_358)">
<g clip-path="url(#clip4_48_358)">
<path d="M319.73 242.778H4.00398C2.22469 242.778 0.782288 244.161 0.782288 245.867C0.782288 247.573 2.22469 248.957 4.00398 248.957H319.73C321.509 248.957 322.952 247.573 322.952 245.867C322.952 244.161 321.509 242.778 319.73 242.778Z" fill="#9ECB05"/>
<g clip-path="url(#clip5_48_358)">
<g clip-path="url(#clip6_48_358)">
<path d="M24.086 173.179H30.6104V171.058H9.69901V173.179H17.0598V206.786C17.0598 213.479 16.2122 217.476 14.517 218.779C13.8701 219.213 13.1396 219.43 12.3255 219.43C10.8533 219.43 9.87188 218.584 9.38116 216.892C8.77891 214.999 8.37183 213.885 8.15993 213.551C7.50192 212.682 6.52048 212.248 5.21561 212.248C3.52039 212.248 2.40512 213.039 1.86979 214.62C1.7025 215.054 1.61885 215.461 1.61885 215.839C1.61885 218.011 3.03525 219.614 5.86804 220.65C7.39597 221.195 9.08561 221.468 10.937 221.468C15.61 221.468 19.1454 219.62 21.5432 215.923C23.2384 213.261 24.086 209.943 24.086 205.968V173.179ZM43.6758 202.627C43.6758 194.198 45.99 189.059 50.6184 187.21C51.8229 186.776 53.0776 186.559 54.3825 186.559C60.4272 186.559 63.9404 190.367 64.9218 197.984C65.0891 199.286 65.1727 200.723 65.1727 202.293C65.1727 211.435 62.6634 216.791 57.6446 218.361C56.6632 218.64 55.6594 218.779 54.6334 218.779C49.1239 218.779 45.6666 215.516 44.2613 208.991C43.871 207.087 43.6758 204.965 43.6758 202.627ZM54.6334 184.521C49.4028 184.521 45.042 186.314 41.5512 189.899C38.3392 193.218 36.7332 197.349 36.7332 202.293C36.7332 209.152 39.2426 214.291 44.2613 217.71C47.306 219.781 50.6797 220.817 54.3825 220.817C59.6131 220.817 63.9404 218.968 67.3643 215.271C70.5316 211.897 72.1153 207.683 72.1153 202.627C72.1153 195.779 69.5781 190.695 64.5036 187.377C61.5146 185.473 58.2246 184.521 54.6334 184.521ZM100.371 220.817C105.155 220.817 109.181 219.024 112.449 215.438C115.505 211.953 117.033 207.549 117.033 202.226C117.033 196.235 115.399 191.558 112.131 188.196C109.678 185.746 106.655 184.521 103.064 184.521C97.1309 184.521 92.9096 187.182 90.4002 192.505C90.1326 192.995 89.9151 193.485 89.7478 193.975V166.982H77.5021V169.02H83.6249V213.067C83.6249 215.572 82.9167 217.07 81.5003 217.56C80.6862 217.827 79.3534 217.961 77.5021 217.961V219.998H87.7905L88.5266 214.62C90.8686 218.373 94.4096 220.41 99.1496 220.733C99.5845 220.789 99.9916 220.817 100.371 220.817ZM100.538 187.778C104.999 187.778 107.91 190.501 109.271 195.946C109.817 197.95 110.09 200.233 110.09 202.794C110.09 210.455 108.022 215.427 103.884 217.71C102.579 218.423 101.135 218.779 99.551 218.779C95.4691 218.779 92.5806 216.602 90.8854 212.248C90.0712 209.965 89.6641 207.326 89.6641 204.331C89.6641 197.761 91.298 193.006 94.5658 190.066C96.3056 188.541 98.2964 187.778 100.538 187.778ZM159.993 207.187C159.993 202.354 157.378 198.468 152.147 195.528C151.11 194.983 147.926 193.541 142.595 191.202C137.744 189.142 134.693 187.026 133.444 184.855C132.786 183.652 132.457 182.372 132.457 181.013C132.457 177.372 134.23 174.844 137.777 173.43C139.305 172.829 140.995 172.528 142.846 172.528C147.419 172.528 150.904 174.081 153.302 177.188C154.874 179.304 155.633 181.882 155.577 184.922H158.036V170.657C156.731 170.657 155.967 171.064 155.744 171.877C155.633 172.255 155.577 172.773 155.577 173.43C151.718 171.303 147.363 170.24 142.511 170.24C136.634 170.24 132.061 171.871 128.794 175.134C126.608 177.428 125.515 180.094 125.515 183.134C125.515 187.7 128.074 191.425 133.193 194.309C134.119 194.799 137.225 196.185 142.511 198.468C147.407 200.639 150.513 202.839 151.83 205.066C152.532 206.324 152.883 207.688 152.883 209.158C152.883 212.955 151.032 215.7 147.329 217.393C145.59 218.15 143.655 218.528 141.524 218.528C133.193 218.417 128.565 213.334 127.639 203.278H125.197V220.165C126.502 220.165 127.266 219.781 127.489 219.013C127.589 218.579 127.639 217.794 127.639 216.658C131.833 219.43 136.6 220.817 141.943 220.817C148.199 220.817 153.045 219.13 156.48 215.756C158.822 213.362 159.993 210.505 159.993 207.187ZM184.167 233.461H178.446V216.574C181.446 219.18 184.903 220.594 188.818 220.817C193.669 220.817 197.729 218.996 200.996 215.355C204.153 211.814 205.731 207.326 205.731 201.892C205.731 195.69 204.013 190.985 200.578 187.778C198.191 185.607 195.281 184.521 191.846 184.521C186.559 184.521 182.611 186.614 180.001 190.801C179.343 191.892 178.797 193.034 178.362 194.225L177.96 185.339H166.2V187.377H172.323V228.567C172.323 231.061 171.614 232.554 170.198 233.044C169.384 233.322 168.051 233.461 166.2 233.461V235.499H186.208C186.208 234.296 185.801 233.645 184.987 233.545C184.764 233.489 184.49 233.461 184.167 233.461ZM189.236 187.778C193.976 187.778 196.97 190.746 198.219 196.681C198.599 198.474 198.788 200.483 198.788 202.711C198.788 210.706 196.636 215.761 192.331 217.877C191.082 218.478 189.721 218.779 188.249 218.779C184.055 218.779 181.172 216.574 179.6 212.165C178.775 209.937 178.362 207.304 178.362 204.264C178.362 197.193 180.185 192.299 183.832 189.582C185.472 188.379 187.273 187.778 189.236 187.778ZM240.929 220.817C245.122 220.817 247.436 218.289 247.871 213.234C247.927 212.899 247.955 212.599 247.955 212.332L245.83 212.248C245.451 216.223 244.392 218.233 242.652 218.278C241.235 218.178 240.499 216.769 240.444 214.052V196.831C240.444 189.059 236.551 184.955 228.767 184.521C228.276 184.521 227.785 184.521 227.295 184.521C221.194 184.521 217.106 185.935 215.032 188.763C214.385 189.688 214.062 190.612 214.062 191.536C214.062 193.218 214.848 194.198 216.421 194.476C216.699 194.532 216.973 194.559 217.24 194.559C218.501 194.559 219.426 193.769 220.017 192.188C220.787 190.172 221.305 188.975 221.573 188.596C222.61 187.238 224.216 186.559 226.391 186.559C231.51 186.882 234.153 189.682 234.321 194.96V200.105C221.517 200.105 214.19 202.766 212.339 208.089C212.015 209.125 211.854 210.238 211.854 211.43C211.854 215.561 213.677 218.389 217.324 219.915C218.796 220.516 220.352 220.817 221.991 220.817C225.962 220.817 229.308 219.458 232.029 216.741C233.01 215.706 233.746 214.614 234.237 213.467C234.895 218.311 237.126 220.761 240.929 220.817ZM224.685 217.56C221.361 217.56 219.315 215.9 218.545 212.582C218.389 211.814 218.311 210.967 218.311 210.043C218.311 206.402 220.408 204.091 224.601 203.111C226.832 202.621 230.072 202.349 234.321 202.293V208.824C233.507 212.577 231.516 215.216 228.348 216.741C227.099 217.287 225.878 217.56 224.685 217.56ZM269.117 217.961H263.229V201.725C263.229 196.781 264.757 192.811 267.812 189.816C269.006 188.68 270.01 188.084 270.824 188.028C271.749 188.028 272.597 188.708 273.367 190.066C274.236 191.592 275.051 192.46 275.809 192.672C276.132 192.783 276.461 192.839 276.796 192.839C278.424 192.839 279.456 192.048 279.891 190.467C280.002 190.144 280.058 189.821 280.058 189.498C280.058 187.049 278.803 185.551 276.294 185.005C275.759 184.905 275.246 184.855 274.755 184.855C271.487 184.855 268.571 186.241 266.006 189.014C264.812 190.317 263.859 191.781 263.145 193.407L262.827 185.339H250.983V187.377H257.106V213.067C257.106 215.572 256.398 217.07 254.981 217.56C254.167 217.827 252.834 217.961 250.983 217.961V219.998H271.158C271.158 218.807 270.746 218.155 269.92 218.044C269.708 217.988 269.441 217.961 269.117 217.961ZM298.929 217.961H295.248V205.884L299.732 201.725L311.258 219.998H322.115C322.115 218.807 321.708 218.155 320.894 218.044C320.682 217.988 320.409 217.961 320.074 217.961H317.13L303.981 197.733L311.659 190.551C313.567 188.758 315.011 187.756 315.992 187.544C316.427 187.433 316.918 187.377 317.464 187.377C318.658 187.377 319.31 186.971 319.422 186.158C319.477 185.879 319.505 185.607 319.505 185.339H305.62V187.377H311.743L295.248 202.627V166.982H282.986V169.02H289.125V213.067C289.125 215.572 288.417 217.07 287.001 217.56C286.175 217.827 284.837 217.961 282.986 217.961V219.998H300.97C300.97 218.807 300.557 218.155 299.732 218.044C299.52 217.988 299.252 217.961 298.929 217.961Z" fill="white"/>
</g>
</g>
<g clip-path="url(#clip7_48_358)">
<g clip-path="url(#clip8_48_358)">
<path d="M14.3434 271.372H14.5297L19.1435 258.005H20.3137V257.399H16.5357V258.005H18.3984L14.7398 268.997L10.9809 258.005H12.8723V257.399H8.86024L10.446 261.872L7.99573 268.949L4.05531 258.005H5.94671V257.399H0.817001V258.005H2.19257L6.48165 269.974C6.7937 270.858 7.07391 271.348 7.32228 271.443C7.41462 271.472 7.50696 271.486 7.5993 271.486H7.79035L10.8185 262.94L13.3165 269.974C13.5967 270.766 13.8212 271.208 13.9899 271.3C14.0855 271.348 14.2033 271.372 14.3434 271.372ZM25.7205 270.79H24.555V265.759C24.555 264.347 25.0454 263.323 26.0261 262.688C26.4305 262.424 26.8493 262.292 27.2823 262.292C28.2312 262.292 28.8919 262.734 29.2645 263.618C29.4364 264.037 29.5224 264.503 29.5224 265.015V269.393C29.5224 270.108 29.352 270.536 29.0113 270.675C28.7916 270.752 28.4175 270.79 27.8889 270.79V271.372H33.0234C33.0234 271.032 32.9056 270.846 32.6699 270.814C32.6094 270.798 32.5314 270.79 32.4359 270.79H31.2705V265.015C31.2705 263.323 30.7117 262.174 29.594 261.567C29.1578 261.351 28.6913 261.243 28.1946 261.243C27.0419 261.243 26.0771 261.662 25.3001 262.502C24.9754 262.858 24.727 263.261 24.555 263.713V256.235H21.0588V256.817H22.8069V269.393C22.8069 270.108 22.6047 270.536 22.2003 270.675C21.9679 270.752 21.5874 270.79 21.0588 270.79V271.372H26.3032C26.3032 271.032 26.1869 270.846 25.9545 270.814C25.8908 270.798 25.8128 270.79 25.7205 270.79ZM39.4331 261.824C40.5221 261.824 41.2449 262.282 41.6015 263.198C41.7257 263.494 41.7878 263.811 41.7878 264.152C41.7878 264.927 41.4153 265.401 40.6702 265.573C40.2817 265.652 39.7293 265.684 39.0128 265.668L36.5435 265.597C36.6199 263.813 37.2026 262.649 38.2916 262.106C38.6482 261.918 39.0287 261.824 39.4331 261.824ZM43.493 269.135L42.9102 268.925C42.3657 270.105 41.4869 270.772 40.2737 270.928C40.1177 270.944 39.9697 270.952 39.8296 270.952C38.1961 270.952 37.1708 269.982 36.7536 268.043C36.6263 267.499 36.5562 266.902 36.5435 266.25L39.3376 266.298C41.2354 266.326 42.4565 266.147 43.001 265.759C43.4213 265.45 43.6315 265.008 43.6315 264.433C43.6315 263.378 43.0949 262.54 42.0219 261.92C41.2608 261.468 40.382 261.243 39.3854 261.243C37.443 261.243 36.0515 262.05 35.2109 263.665C34.7779 264.501 34.5613 265.447 34.5613 266.503C34.5613 268.429 35.2523 269.858 36.6342 270.79C37.4589 271.334 38.3999 271.605 39.457 271.605C41.1351 271.605 42.3705 271 43.1634 269.788C43.2876 269.572 43.3974 269.354 43.493 269.135ZM50.3708 270.79H48.6895V266.155C48.6895 264.743 49.1258 263.61 49.9982 262.754C50.3389 262.43 50.6255 262.26 50.858 262.244C51.1222 262.244 51.3642 262.438 51.5839 262.826C51.8323 263.261 52.0648 263.509 52.2813 263.57C52.3768 263.602 52.4707 263.618 52.5631 263.618C53.028 263.618 53.3225 263.392 53.4467 262.94C53.4785 262.848 53.4945 262.756 53.4945 262.664C53.4945 261.964 53.1378 261.537 52.4246 261.381C52.2685 261.352 52.1205 261.338 51.9804 261.338C51.0474 261.338 50.2148 261.734 49.4824 262.525C49.1417 262.897 48.8694 263.316 48.6656 263.78L48.5749 261.476H45.1933V262.058H46.9414V269.393C46.9414 270.108 46.7392 270.536 46.3348 270.675C46.1024 270.752 45.7219 270.79 45.1933 270.79V271.372H50.9535C50.9535 271.032 50.8373 270.846 50.6048 270.814C50.5411 270.798 50.4631 270.79 50.3708 270.79ZM59.417 261.824C60.506 261.824 61.2288 262.282 61.5854 263.198C61.7096 263.494 61.7717 263.811 61.7717 264.152C61.7717 264.927 61.3992 265.401 60.6541 265.573C60.2656 265.652 59.7132 265.684 58.9967 265.668L56.5274 265.597C56.6038 263.813 57.1865 262.649 58.2755 262.106C58.6321 261.918 59.0126 261.824 59.417 261.824ZM63.4769 269.135L62.8941 268.925C62.3497 270.105 61.4708 270.772 60.2576 270.928C60.1016 270.944 59.9536 270.952 59.8135 270.952C58.18 270.952 57.1547 269.982 56.7375 268.043C56.6134 267.499 56.5433 266.902 56.5274 266.25L59.3263 266.298C61.2209 266.326 62.4404 266.147 62.9849 265.759C63.4052 265.45 63.6154 265.008 63.6154 264.433C63.6154 263.378 63.0788 262.54 62.0058 261.92C61.2447 261.468 60.3659 261.243 59.3693 261.243C57.4269 261.243 56.0354 262.05 55.1948 263.665C54.7618 264.501 54.5452 265.447 54.5452 266.503C54.5452 268.429 55.2362 269.858 56.6181 270.79C57.4428 271.334 58.3838 271.605 59.4409 271.605C61.119 271.605 62.3544 271 63.1473 269.788C63.2715 269.572 63.3813 269.354 63.4769 269.135ZM72.4037 271.372H78.8182C78.8182 271.032 78.694 270.838 78.4457 270.79C78.3693 270.774 78.2912 270.766 78.2116 270.766H76.6259V258.005H77.9776C79.2385 258.005 80.0792 258.766 80.4995 260.289C80.4995 260.349 80.5074 260.395 80.5234 260.427L80.8959 261.987H81.5455L81.4308 257.399H69.9105L69.7911 261.987H70.4454L70.818 260.427C71.3179 258.908 72.1665 258.1 73.3637 258.005H74.6199V270.766H72.4037V271.372ZM91.4801 271.605C92.6774 271.605 93.3381 270.884 93.4623 269.44C93.4782 269.345 93.4861 269.259 93.4861 269.183L92.8796 269.159C92.7713 270.294 92.4688 270.868 91.9721 270.881C91.5677 270.852 91.3575 270.45 91.3416 269.674V264.757C91.3416 262.538 90.2303 261.367 88.0078 261.243C87.8677 261.243 87.7276 261.243 87.5874 261.243C85.8457 261.243 84.6787 261.646 84.0865 262.454C83.9018 262.718 83.8094 262.982 83.8094 263.246C83.8094 263.726 84.0339 264.005 84.4829 264.085C84.5625 264.101 84.6405 264.109 84.7169 264.109C85.0767 264.109 85.341 263.883 85.5098 263.432C85.7295 262.856 85.8775 262.514 85.954 262.406C86.2501 262.018 86.7086 261.824 87.3295 261.824C88.7911 261.917 89.5457 262.716 89.5935 264.223V265.692C85.938 265.692 83.846 266.452 83.3175 267.972C83.2251 268.267 83.179 268.585 83.179 268.925C83.179 270.105 83.6996 270.912 84.7408 271.348C85.1611 271.52 85.6037 271.605 86.0686 271.605C87.2054 271.605 88.1622 271.218 88.9391 270.442C89.2193 270.146 89.4295 269.835 89.5696 269.507C89.7543 270.89 90.3911 271.589 91.4801 271.605ZM86.8424 270.675C85.8935 270.675 85.3092 270.202 85.0895 269.254C85.0449 269.035 85.0226 268.793 85.0226 268.529C85.0226 267.49 85.6212 266.83 86.8185 266.55C87.4553 266.411 88.3803 266.333 89.5935 266.317V268.181C89.3579 269.253 88.7895 270.006 87.8884 270.442C87.5317 270.598 87.1831 270.675 86.8424 270.675ZM99.1317 270.79H97.8708V256.235H94.3698V256.817H96.1226V269.393C96.1226 270.108 95.9204 270.536 95.5161 270.675C95.2804 270.752 94.8983 270.79 94.3698 270.79V271.372H99.7144C99.7144 271.032 99.5966 270.846 99.361 270.814C99.3005 270.798 99.224 270.79 99.1317 270.79ZM106.148 261.824C107.237 261.824 107.96 262.282 108.316 263.198C108.441 263.494 108.503 263.811 108.503 264.152C108.503 264.927 108.13 265.401 107.385 265.573C106.997 265.652 106.444 265.684 105.728 265.668L103.258 265.597C103.335 263.813 103.918 262.649 105.007 262.106C105.363 261.918 105.744 261.824 106.148 261.824ZM110.208 269.135L109.625 268.925C109.081 270.105 108.202 270.772 106.989 270.928C106.833 270.944 106.685 270.952 106.544 270.952C104.911 270.952 103.884 269.982 103.464 268.043C103.34 267.499 103.271 266.902 103.258 266.25L106.053 266.298C107.95 266.326 109.171 266.147 109.716 265.759C110.136 265.45 110.346 265.008 110.346 264.433C110.346 263.378 109.81 262.54 108.737 261.92C107.976 261.468 107.097 261.243 106.1 261.243C104.158 261.243 102.766 262.05 101.926 263.665C101.49 264.501 101.271 265.447 101.271 266.503C101.271 268.429 101.964 269.858 103.349 270.79C104.174 271.334 105.115 271.605 106.172 271.605C107.85 271.605 109.085 271 109.878 269.788C110.002 269.572 110.112 269.354 110.208 269.135ZM116.407 270.79H115.357V265.759C115.404 264.315 115.919 263.276 116.899 262.64C117.32 262.376 117.746 262.244 118.179 262.244C119.128 262.244 119.775 262.686 120.119 263.57C120.259 263.929 120.329 264.333 120.329 264.781V269.393C120.329 270.108 120.127 270.536 119.722 270.675C119.487 270.752 119.104 270.79 118.576 270.79V271.372H123.825C123.825 271.032 123.709 270.846 123.476 270.814C123.413 270.798 123.335 270.79 123.242 270.79H122.077V265.015C122.077 263.463 121.54 262.354 120.467 261.686C119.971 261.39 119.434 261.243 118.858 261.243C117.708 261.243 116.759 261.7 116.011 262.616C115.731 262.972 115.506 263.368 115.338 263.804L115.242 261.476H111.86V262.058H113.609V269.393C113.609 270.108 113.406 270.536 113.002 270.675C112.77 270.752 112.389 270.79 111.86 270.79V271.372H116.99C116.99 271.032 116.874 270.846 116.641 270.814C116.578 270.798 116.5 270.79 116.407 270.79ZM124.871 261.476V262.058H126.504V268.625C126.613 270.564 127.507 271.566 129.189 271.629C130.618 271.629 131.512 270.752 131.868 268.997C131.868 268.981 131.868 268.965 131.868 268.949L131.238 268.835C130.849 270.122 130.283 270.82 129.537 270.928C128.697 270.896 128.269 270.299 128.253 269.135V262.058H131.868V261.476H128.253V258.772L126.504 259.264V261.476H124.871ZM154.747 258.005V257.399H151.016L145.977 268.787L140.566 257.399H137.232V258.005H139.095V270.766H137.232V271.372H141.894C141.894 271.032 141.769 270.838 141.521 270.79C141.445 270.774 141.367 270.766 141.287 270.766H140.031V260.751L145.137 271.486H145.629L151.016 259.497V270.766H149.149V271.372H154.747C154.747 271.032 154.622 270.838 154.374 270.79C154.294 270.774 154.216 270.766 154.14 270.766H152.879V258.005H154.747ZM161.252 261.824C162.341 261.824 163.064 262.282 163.42 263.198C163.544 263.494 163.607 263.811 163.607 264.152C163.607 264.927 163.234 265.401 162.489 265.573C162.1 265.652 161.548 265.684 160.832 265.668L158.357 265.597C158.437 263.813 159.021 262.649 160.11 262.106C160.467 261.918 160.847 261.824 161.252 261.824ZM165.307 269.135L164.724 268.925C164.18 270.105 163.302 270.772 162.092 270.928C161.936 270.944 161.788 270.952 161.648 270.952C160.015 270.952 158.988 269.982 158.568 268.043C158.443 267.499 158.373 266.902 158.357 266.25L161.156 266.298C163.054 266.326 164.275 266.147 164.82 265.759C165.24 265.45 165.45 265.008 165.45 264.433C165.45 263.378 164.914 262.54 163.841 261.92C163.08 261.468 162.201 261.243 161.204 261.243C159.262 261.243 157.87 262.05 157.03 263.665C156.593 264.501 156.375 265.447 156.375 266.503C156.375 268.429 157.068 269.858 158.453 270.79C159.278 271.334 160.219 271.605 161.276 271.605C162.954 271.605 164.189 271 164.982 269.788C165.106 269.572 165.215 269.354 165.307 269.135ZM172.07 261.824C173.159 261.824 173.882 262.282 174.238 263.198C174.363 263.494 174.425 263.811 174.425 264.152C174.425 264.927 174.052 265.401 173.307 265.573C172.919 265.652 172.366 265.684 171.65 265.668L169.18 265.597C169.257 263.813 169.84 262.649 170.929 262.106C171.285 261.918 171.666 261.824 172.07 261.824ZM176.13 269.135L175.547 268.925C175.003 270.105 174.124 270.772 172.911 270.928C172.755 270.944 172.607 270.952 172.467 270.952C170.836 270.952 169.811 269.982 169.391 268.043C169.266 267.499 169.196 266.902 169.18 266.25L171.979 266.298C173.874 266.326 175.093 266.147 175.638 265.759C176.058 265.45 176.268 265.008 176.268 264.433C176.268 263.378 175.732 262.54 174.659 261.92C173.898 261.468 173.019 261.243 172.022 261.243C170.08 261.243 168.688 262.05 167.848 263.665C167.415 264.501 167.198 265.447 167.198 266.503C167.198 268.429 167.889 269.858 169.271 270.79C170.096 271.334 171.037 271.605 172.094 271.605C173.772 271.605 175.007 271 175.8 269.788C175.928 269.572 176.038 269.354 176.13 269.135ZM177.548 261.476V262.058H179.182V268.625C179.29 270.564 180.185 271.566 181.866 271.629C183.296 271.629 184.189 270.752 184.546 268.997C184.546 268.981 184.546 268.965 184.546 268.949L183.915 268.835C183.527 270.122 182.96 270.82 182.215 270.928C181.374 270.896 180.946 270.299 180.93 269.135V262.058H184.546V261.476H180.93V258.772L179.182 259.264V261.476H177.548ZM189.093 270.976C190.166 270.976 190.889 270.65 191.261 269.998C191.401 269.766 191.471 269.51 191.471 269.231C191.471 268.579 190.997 268.019 190.048 267.552C189.847 267.444 189.513 267.29 189.045 267.089C187.771 266.562 186.924 266.064 186.504 265.597C186.055 265.085 185.83 264.487 185.83 263.804C185.83 262.732 186.421 261.979 187.602 261.543C188.147 261.343 188.738 261.243 189.374 261.243C190.4 261.243 191.285 261.46 192.03 261.896C192.03 261.445 192.14 261.189 192.36 261.128C192.452 261.112 192.552 261.104 192.661 261.104V264.013H192.054C192.025 262.586 191.232 261.864 189.675 261.848C188.51 261.848 187.787 262.19 187.507 262.874C187.431 263.058 187.392 263.252 187.392 263.455C187.392 264.123 187.873 264.689 188.835 265.153C189.054 265.261 189.397 265.409 189.862 265.597C191.123 266.108 191.963 266.598 192.384 267.065C192.833 267.561 193.057 268.151 193.057 268.835C193.057 270.09 192.388 270.928 191.051 271.348C190.538 271.52 189.979 271.605 189.374 271.605C188.254 271.589 187.281 271.31 186.456 270.766C186.456 271.17 186.356 271.404 186.155 271.467C186.063 271.48 185.955 271.486 185.83 271.486V267.948H186.48C186.512 269.951 187.383 270.96 189.093 270.976ZM206.817 257.165C204.951 257.165 203.35 257.779 202.012 259.006C200.551 260.357 199.82 262.12 199.82 264.295C199.82 266.81 200.683 268.749 202.409 270.113C203.667 271.108 205.112 271.605 206.746 271.605C208.58 271.605 210.158 270.984 211.479 269.741C212.957 268.361 213.695 266.576 213.695 264.385C213.695 261.823 212.802 259.876 211.016 258.543C209.803 257.625 208.403 257.165 206.817 257.165ZM206.817 270.952C204.563 270.952 203.116 269.749 202.476 267.342C202.259 266.49 202.151 265.504 202.151 264.385C202.151 260.691 203.27 258.548 205.509 257.957C205.897 257.865 206.31 257.819 206.746 257.819C209.809 257.85 211.348 260.009 211.364 264.295C211.364 267.677 210.423 269.781 208.542 270.604C208.013 270.836 207.438 270.952 206.817 270.952ZM220.716 275.215H219.083V270.394C219.936 271.138 220.923 271.542 222.044 271.605C223.426 271.605 224.584 271.086 225.516 270.046C226.421 269.035 226.873 267.754 226.873 266.202C226.873 264.431 226.383 263.088 225.402 262.173C224.717 261.553 223.885 261.243 222.904 261.243C221.398 261.243 220.271 261.84 219.522 263.036C219.338 263.347 219.183 263.673 219.059 264.013L218.94 261.476H215.582V262.058H217.335V273.818C217.335 274.53 217.133 274.956 216.728 275.096C216.493 275.176 216.11 275.215 215.582 275.215V275.797H221.299C221.299 275.454 221.181 275.268 220.946 275.239C220.885 275.223 220.809 275.215 220.716 275.215ZM222.159 262.173C223.512 262.173 224.367 263.02 224.724 264.714C224.835 265.226 224.891 265.8 224.891 266.436C224.891 268.719 224.276 270.162 223.047 270.766C222.687 270.938 222.299 271.024 221.882 271.024C220.685 271.024 219.86 270.394 219.408 269.135C219.175 268.499 219.059 267.747 219.059 266.879C219.059 264.861 219.58 263.463 220.621 262.688C221.086 262.344 221.598 262.173 222.159 262.173ZM233.541 275.215H231.907V270.394C232.764 271.138 233.751 271.542 234.868 271.605C236.254 271.605 237.413 271.086 238.346 270.046C239.247 269.035 239.697 267.754 239.697 266.202C239.697 264.431 239.207 263.088 238.226 262.173C237.542 261.553 236.71 261.243 235.733 261.243C234.224 261.243 233.096 261.84 232.351 263.036C232.163 263.347 232.007 263.673 231.883 264.013L231.769 261.476H228.411V262.058H230.159V273.818C230.159 274.53 229.957 274.956 229.552 275.096C229.32 275.176 228.939 275.215 228.411 275.215V275.797H234.123C234.123 275.454 234.007 275.268 233.775 275.239C233.711 275.223 233.633 275.215 233.541 275.215ZM234.988 262.173C236.338 262.173 237.193 263.02 237.553 264.714C237.661 265.226 237.715 265.8 237.715 266.436C237.715 268.719 237.101 270.162 235.871 270.766C235.515 270.938 235.126 271.024 234.706 271.024C233.509 271.024 232.684 270.394 232.232 269.135C231.999 268.499 231.883 267.747 231.883 266.879C231.883 264.861 232.404 263.463 233.445 262.688C233.913 262.344 234.427 262.173 234.988 262.173ZM243.542 266.412C243.542 264.005 244.203 262.538 245.524 262.01C245.868 261.886 246.226 261.824 246.599 261.824C248.325 261.824 249.328 262.912 249.608 265.086C249.653 265.458 249.675 265.868 249.675 266.317C249.675 268.927 248.96 270.456 247.53 270.904C247.25 270.984 246.964 271.024 246.671 271.024C245.098 271.024 244.109 270.092 243.705 268.229C243.596 267.685 243.542 267.08 243.542 266.412ZM246.671 261.243C245.177 261.243 243.932 261.755 242.936 262.778C242.018 263.726 241.56 264.905 241.56 266.317C241.56 268.275 242.275 269.742 243.705 270.718C244.577 271.31 245.542 271.605 246.599 271.605C248.092 271.605 249.328 271.078 250.305 270.022C251.21 269.059 251.662 267.855 251.662 266.412C251.662 264.457 250.937 263.006 249.489 262.058C248.635 261.514 247.696 261.243 246.671 261.243ZM258.516 270.79H256.834V266.155C256.834 264.743 257.271 263.61 258.143 262.754C258.484 262.43 258.77 262.26 259.003 262.244C259.267 262.244 259.509 262.438 259.729 262.826C259.977 263.261 260.21 263.509 260.426 263.57C260.519 263.602 260.613 263.618 260.708 263.618C261.173 263.618 261.467 263.392 261.592 262.94C261.623 262.848 261.639 262.756 261.639 262.664C261.639 261.964 261.281 261.537 260.565 261.381C260.412 261.352 260.265 261.338 260.125 261.338C259.192 261.338 258.36 261.734 257.627 262.525C257.287 262.897 257.014 263.316 256.811 263.78L256.72 261.476H253.338V262.058H255.086V269.393C255.086 270.108 254.884 270.536 254.48 270.675C254.247 270.752 253.867 270.79 253.338 270.79V271.372H259.098C259.098 271.032 258.982 270.846 258.75 270.814C258.686 270.798 258.608 270.79 258.516 270.79ZM262.222 261.476V262.058H263.856V268.625C263.964 270.564 264.857 271.566 266.535 271.629C267.965 271.629 268.86 270.752 269.219 268.997C269.219 268.981 269.219 268.965 269.219 268.949L268.589 268.835C268.2 270.122 267.632 270.82 266.884 270.928C266.046 270.896 265.62 270.299 265.604 269.135V262.058H269.219V261.476H265.604V258.772L263.856 259.264V261.476H262.222ZM281.346 270.79H280.176V261.476H276.517V262.058H278.428V267.089C278.428 268.485 277.939 269.509 276.962 270.16C276.525 270.456 276.073 270.604 275.605 270.604C274.332 270.604 273.594 269.952 273.394 268.649C273.362 268.429 273.346 268.196 273.346 267.948V261.476H269.802V262.058H271.598V267.6C271.611 270.254 272.722 271.589 274.932 271.605C276.097 271.605 277.052 271.132 277.798 270.184C278.078 269.828 278.304 269.432 278.476 268.997L278.638 271.372H281.929C281.929 271.032 281.811 270.846 281.576 270.814C281.515 270.798 281.439 270.79 281.346 270.79ZM287.804 270.79H286.753V265.759C286.801 264.315 287.313 263.276 288.291 262.64C288.711 262.376 289.14 262.244 289.576 262.244C290.525 262.244 291.169 262.686 291.51 263.57C291.65 263.929 291.72 264.333 291.72 264.781V269.393C291.72 270.108 291.518 270.536 291.114 270.675C290.881 270.752 290.501 270.79 289.972 270.79V271.372H295.221C295.221 271.032 295.104 270.846 294.868 270.814C294.807 270.798 294.731 270.79 294.639 270.79H293.468V265.015C293.468 263.463 292.932 262.354 291.859 261.686C291.362 261.39 290.827 261.243 290.254 261.243C289.101 261.243 288.152 261.7 287.407 262.616C287.127 262.972 286.901 263.368 286.729 263.804L286.638 261.476H283.257V262.058H285.005V269.393C285.005 270.108 284.803 270.536 284.398 270.675C284.166 270.752 283.785 270.79 283.257 270.79V271.372H288.387C288.387 271.032 288.27 270.846 288.038 270.814C287.974 270.798 287.896 270.79 287.804 270.79ZM301.282 270.79H300.117V261.476H296.501V262.058H298.369V269.393C298.369 270.108 298.127 270.542 297.643 270.695C297.41 270.758 297.03 270.79 296.501 270.79V271.372H301.865C301.865 271.032 301.749 270.846 301.516 270.814C301.437 270.798 301.359 270.79 301.282 270.79ZM300.394 258.076C300.394 257.532 300.154 257.145 299.673 256.913C299.485 256.833 299.307 256.793 299.138 256.793C298.593 256.793 298.205 257.043 297.972 257.542C297.893 257.711 297.853 257.889 297.853 258.076C297.853 258.652 298.109 259.047 298.622 259.264C298.794 259.324 298.966 259.354 299.138 259.354C299.682 259.354 300.063 259.106 300.279 258.61C300.356 258.442 300.394 258.264 300.394 258.076ZM303.031 261.476V262.058H304.664V268.625C304.772 270.564 305.665 271.566 307.344 271.629C308.773 271.629 309.668 270.752 310.028 268.997C310.028 268.981 310.028 268.965 310.028 268.949L309.397 268.835C309.009 270.122 308.44 270.82 307.692 270.928C306.855 270.896 306.428 270.299 306.412 269.135V262.058H310.028V261.476H306.412V258.772L304.664 259.264V261.476H303.031ZM312.545 275.072C312.296 275.072 312.11 274.886 311.986 274.514C311.814 274.05 311.65 273.764 311.494 273.656C311.354 273.561 311.192 273.513 311.007 273.513C310.507 273.513 310.219 273.731 310.142 274.166C310.126 274.227 310.119 274.281 310.119 274.328C310.119 274.92 310.461 275.347 311.145 275.611C311.454 275.735 311.781 275.797 312.125 275.797C313.354 275.797 314.419 275.044 315.32 273.537C315.692 272.933 316.049 272.211 316.39 271.372L319.843 262.874C319.999 262.438 320.171 262.19 320.359 262.13C320.467 262.098 320.591 262.082 320.731 262.082C321.04 262.082 321.219 261.996 321.266 261.824C321.298 261.732 321.314 261.616 321.314 261.476H317.77V262.082H319.47L316.485 269.531L313.29 262.082H314.852V261.476H310.305V262.082H311.446L315.645 271.372C314.775 273.422 313.959 274.61 313.194 274.934C312.978 275.026 312.761 275.072 312.545 275.072Z" fill="white"/>
</g>
</g>
</g>
</g>
<g clip-path="url(#clip9_48_358)">
<g clip-path="url(#clip10_48_358)">
<path d="M177.913 85.0227C186.215 88.0544 194.208 90.6029 201.671 92.6151C194.844 88.486 187.22 84.3387 178.993 80.3175C199.922 79.7348 219.6 78.0977 237.176 75.6156C219.85 73.1701 200.482 71.5447 179.886 70.9387C187.901 67.223 195.351 63.3778 202.05 59.5326C194.298 61.4336 185.969 63.8858 177.304 66.8527C191.691 51.6613 204.447 36.611 215.117 22.4473C201.133 32.9501 186.283 45.4785 171.288 59.5941C174.324 51.306 176.875 43.3235 178.89 35.8738C174.755 42.6892 170.601 50.3015 166.577 58.5149C165.99 37.6188 164.352 17.9712 161.866 0.425476C159.415 17.7221 157.789 37.0609 157.182 57.6233C153.459 49.6208 149.609 42.1828 145.758 35.4936C147.662 43.2338 150.118 51.5501 153.088 60.2001C137.875 45.8371 122.801 33.1012 108.615 22.4456C119.134 36.4118 131.682 51.2379 145.82 66.2102C137.519 63.1769 129.524 60.6284 122.061 58.6178C128.889 62.7469 136.511 66.8942 144.739 70.9138C123.81 71.4965 104.132 73.1335 86.5576 75.6156C103.883 78.0629 123.25 79.6866 143.846 80.2926C135.831 84.0099 128.381 87.8551 121.68 91.6986C129.436 89.7976 137.765 87.3454 146.43 84.3785C132.041 99.57 119.286 114.62 108.615 128.784C122.6 118.281 137.449 105.753 152.444 91.6405C149.408 99.9253 146.856 107.909 144.842 115.359C148.977 108.542 153.131 100.931 157.155 92.7164C157.742 113.612 159.38 133.26 161.866 150.807C164.317 133.511 165.943 114.17 166.55 93.6079C170.273 101.61 174.123 109.048 177.974 115.738C176.07 107.997 173.614 99.6812 170.643 91.0295C185.858 105.394 200.931 118.13 215.117 128.784C204.598 114.821 192.05 99.995 177.913 85.0227Z" fill="#9ECB05"/>
</g>
</g>
</g>
</g>
</g>
<defs>
<clipPath id="clip0_48_358">
<rect width="322.5" height="275.149" fill="white" transform="translate(0.616974 0.536865)"/>
</clipPath>
<clipPath id="clip1_48_358">
<rect width="322.169" height="275.372" fill="white" transform="translate(0.782288 0.425476)"/>
</clipPath>
<clipPath id="clip2_48_358">
<rect width="322.169" height="275.372" fill="white" transform="translate(0.782288 0.425476)"/>
</clipPath>
<clipPath id="clip3_48_358">
<rect width="322.169" height="108.815" fill="white" transform="translate(0.782288 166.982)"/>
</clipPath>
<clipPath id="clip4_48_358">
<rect width="322.169" height="108.815" fill="white" transform="translate(0.782288 166.982)"/>
</clipPath>
<clipPath id="clip5_48_358">
<rect width="320.567" height="68.5164" fill="white" transform="translate(1.58371 166.982)"/>
</clipPath>
<clipPath id="clip6_48_358">
<rect width="320.567" height="68.5164" fill="white" transform="translate(1.58371 166.982)"/>
</clipPath>
<clipPath id="clip7_48_358">
<rect width="320.567" height="19.5619" fill="white" transform="translate(0.782288 256.235)"/>
</clipPath>
<clipPath id="clip8_48_358">
<rect width="320.567" height="19.5619" fill="white" transform="translate(0.782288 256.235)"/>
</clipPath>
<clipPath id="clip9_48_358">
<rect width="150.619" height="150.382" fill="white" transform="translate(86.5576 0.425476)"/>
</clipPath>
<clipPath id="clip10_48_358">
<rect width="150.619" height="150.382" fill="white" transform="translate(86.5576 0.425476)"/>
</clipPath>
</defs>
</svg>
