<svg width="16" height="17" viewBox="0 0 16 17" fill="none" xmlns="http://www.w3.org/2000/svg">
<g clip-path="url(#clip0_6_560)">
<path d="M6.24001 5.82999C6.68801 5.82999 7.04801 5.46999 7.04801 5.02199C7.04801 4.57399 6.68801 4.21399 6.24001 4.21399C5.79201 4.21399 5.43201 4.57399 5.43201 5.02199C5.43201 5.46999 5.79201 5.82999 6.24001 5.82999Z" fill="black"/>
<path fill-rule="evenodd" clip-rule="evenodd" d="M7.86401 7.59005C7.86401 6.72605 7.13601 6.10205 6.24001 6.10205C5.34401 6.10205 4.61601 6.72605 4.61601 7.59005V7.99805C4.61601 8.07005 4.64801 8.14205 4.69601 8.19005C4.74401 8.23805 4.81601 8.27005 4.88801 8.27005H7.59201C7.66401 8.27005 7.73601 8.23805 7.78401 8.19005C7.83201 8.14205 7.86401 8.07005 7.86401 7.99805V7.59005ZM4.60001 9.95005C4.60001 9.79092 4.66322 9.63831 4.77574 9.52579C4.88826 9.41327 5.04088 9.35005 5.20001 9.35005H10.8C10.9591 9.35005 11.1117 9.41327 11.2243 9.52579C11.3368 9.63831 11.4 9.79092 11.4 9.95005C11.4 10.1092 11.3368 10.2618 11.2243 10.3743C11.1117 10.4868 10.9591 10.5501 10.8 10.5501H5.20001C5.04088 10.5501 4.88826 10.4868 4.77574 10.3743C4.66322 10.2618 4.60001 10.1092 4.60001 9.95005ZM4.60001 12.3501C4.60001 12.1909 4.66322 12.0383 4.77574 11.9258C4.88826 11.8133 5.04088 11.7501 5.20001 11.7501H10.8C10.9591 11.7501 11.1117 11.8133 11.2243 11.9258C11.3368 12.0383 11.4 12.1909 11.4 12.3501C11.4 12.5092 11.3368 12.6618 11.2243 12.7743C11.1117 12.8868 10.9591 12.9501 10.8 12.9501H5.20001C5.04088 12.9501 4.88826 12.8868 4.77574 12.7743C4.66322 12.6618 4.60001 12.5092 4.60001 12.3501Z" fill="black"/>
<path fill-rule="evenodd" clip-rule="evenodd" d="M2 2.75002C2 1.86842 2.7184 1.15002 3.6 1.15002H8.952C9.4016 1.15002 9.8256 1.34042 10.124 1.65482L10.1288 1.66042L13.5784 5.42202C13.8656 5.72842 14 6.12922 14 6.51002V14.75C14 15.6316 13.2816 16.35 12.4 16.35H3.6C2.7184 16.35 2 15.6316 2 14.75V2.75002ZM8.9512 2.75002H3.6V14.75H12.4V6.50362L8.9632 2.75562L8.9608 2.75482C8.95789 2.75271 8.95464 2.75109 8.9512 2.75002Z" fill="black"/>
<path fill-rule="evenodd" clip-rule="evenodd" d="M8.95201 1.15002C9.16418 1.15002 9.36767 1.23431 9.51769 1.38434C9.66772 1.53437 9.75201 1.73785 9.75201 1.95002V5.71002H13.2C13.3051 5.71002 13.4091 5.73072 13.5062 5.77092C13.6032 5.81112 13.6914 5.87005 13.7657 5.94434C13.84 6.01863 13.8989 6.10682 13.9391 6.20388C13.9793 6.30094 14 6.40497 14 6.51002C14 6.61508 13.9793 6.71911 13.9391 6.81617C13.8989 6.91323 13.84 7.00142 13.7657 7.07571C13.6914 7.15 13.6032 7.20892 13.5062 7.24913C13.4091 7.28933 13.3051 7.31002 13.2 7.31002H8.95201C8.73983 7.31002 8.53635 7.22574 8.38632 7.07571C8.23629 6.92568 8.15201 6.7222 8.15201 6.51002V1.95002C8.15201 1.73785 8.23629 1.53437 8.38632 1.38434C8.53635 1.23431 8.73983 1.15002 8.95201 1.15002Z" fill="black"/>
</g>
<defs>
<clipPath id="clip0_6_560">
<rect width="16" height="16" fill="white" transform="translate(0 0.75)"/>
</clipPath>
</defs>
</svg>
