<svg width="16" height="17" viewBox="0 0 16 17" fill="none" xmlns="http://www.w3.org/2000/svg">
<path d="M10 8.75C10 9.28043 9.78929 9.78914 9.41421 10.1642C9.03914 10.5393 8.53043 10.75 8 10.75C7.46957 10.75 6.96086 10.5393 6.58579 10.1642C6.21071 9.78914 6 9.28043 6 8.75C6 8.21957 6.21071 7.71086 6.58579 7.33579C6.96086 6.96071 7.46957 6.75 8 6.75C8.53043 6.75 9.03914 6.96071 9.41421 7.33579C9.78929 7.71086 10 8.21957 10 8.75Z" stroke="black" stroke-width="2" stroke-linecap="round" stroke-linejoin="round"/>
<path d="M1.33334 8.75004C2.40001 6.01871 4.89068 4.08337 8.00001 4.08337C11.1093 4.08337 13.6 6.01871 14.6667 8.75004C13.6 11.4814 11.1093 13.4167 8.00001 13.4167C4.89068 13.4167 2.40001 11.4814 1.33334 8.75004Z" stroke="black" stroke-width="2" stroke-linecap="round" stroke-linejoin="round"/>
</svg>
