<svg xmlns="http://www.w3.org/2000/svg" version="1.1" xmlns:xlink="http://www.w3.org/1999/xlink" xmlns:svgjs="http://svgjs.dev/svgjs" width="128" height="128" viewBox="0 0 128 128"><g transform="matrix(0.8046875,0,0,0.8046875,12.760752631578946,12.759609745200613)"><svg viewBox="0 0 95 95" data-background-color="#008080" preserveAspectRatio="xMidYMid meet" height="128" width="128" xmlns="http://www.w3.org/2000/svg" xmlns:xlink="http://www.w3.org/1999/xlink"><g id="tight-bounds" transform="matrix(1,0,0,1,-0.24049999999999727,-0.2394458814957119)"><svg viewBox="0 0 95.481 95.47889176299141" height="95.47889176299141" width="95.481"><g><svg viewBox="0 0 95.481 95.47889176299141" height="95.47889176299141" width="95.481"><g><svg viewBox="0 0 95.481 95.47889176299141" height="95.47889176299141" width="95.481"><g id="textblocktransform"><svg viewBox="0 0 95.481 95.47889176299141" height="95.47889176299141" width="95.481" id="textblock"><g><svg viewBox="0 0 95.481 95.47889176299141" height="95.47889176299141" width="95.481"><g><svg viewBox="0 0 95.481 95.47889176299141" height="95.47889176299141" width="95.481"><g><svg xmlns="http://www.w3.org/2000/svg" xmlns:xlink="http://www.w3.org/1999/xlink" version="1.0" x="0" y="0" viewBox="4.711 4.88 90.57900000000001 90.577" enable-background="new 0 0 100 100" xml:space="preserve" height="95.47889176299141" width="95.481" class="icon-icon-0" data-fill-palette-color="accent" id="icon-0"><path d="M59.65 55.834C64.643 57.66 69.45 59.195 73.938 60.407 69.832 57.92 65.247 55.422 60.3 53 72.886 52.649 84.72 51.663 95.29 50.168 84.87 48.695 73.223 47.716 60.837 47.351 65.657 45.113 70.137 42.797 74.166 40.481 69.504 41.626 64.495 43.103 59.284 44.89 67.936 35.74 75.607 26.675 82.024 18.144 73.614 24.47 64.684 32.016 55.666 40.518 57.492 35.526 59.026 30.718 60.238 26.231 57.751 30.336 55.253 34.921 52.833 39.868 52.48 27.282 51.495 15.448 50 4.88 48.526 15.298 47.548 26.946 47.183 39.331 44.944 34.511 42.629 30.031 40.313 26.002 41.458 30.664 42.935 35.673 44.721 40.883 35.572 32.232 26.507 24.561 17.976 18.143 24.302 26.555 31.848 35.485 40.35 44.503 35.358 42.676 30.55 41.141 26.062 39.93 30.168 42.417 34.752 44.915 39.7 47.336 27.114 47.687 15.28 48.673 4.711 50.168 15.13 51.642 26.777 52.62 39.163 52.985 34.343 55.224 29.863 57.54 25.833 59.855 30.497 58.71 35.506 57.233 40.717 55.446 32.064 64.596 24.393 73.661 17.976 82.192 26.386 75.866 35.316 68.32 44.334 59.82 42.508 64.81 40.973 69.619 39.762 74.106 42.249 70 44.747 65.416 47.167 60.468 47.52 73.054 48.505 84.888 50 95.457 51.474 85.039 52.452 73.39 52.817 61.005 55.056 65.825 57.371 70.305 59.687 74.334 58.542 69.672 57.065 64.663 55.278 59.452 64.428 68.104 73.493 75.775 82.024 82.192 75.698 73.782 68.152 64.852 59.65 55.834" fill="#c6ff00" data-fill-palette-color="accent"></path></svg></g></svg></g></svg></g></svg></g></svg></g><g></g></svg></g><defs></defs></svg><rect width="95.481" height="95.47889176299141" fill="none" stroke="none" visibility="hidden"></rect></g></svg></g></svg>